<svg xmlns="http://www.w3.org/2000/svg" viewBox="0 0 1200 800" preserveAspectRatio="none"><path d="M 1155.2 0 c 15.6815 0 23.5222 0 29.5117 3.0518 a 28 28 0 0 1 12.2365 12.2365 c 3.0518 5.9895 3.0518 13.8302 3.0518 29.5117 L 1200 755.2 c 0 15.6815 0 23.5222 -3.0518 29.5117 a 28 28 0 0 1 -12.2365 12.2365 c -5.9895 3.0518 -13.8302 3.0518 -29.5117 3.0518 L 44.8 800 c -15.6815 0 -23.5222 0 -29.5117 -3.0518 a 28 28 0 0 1 -12.2365 -12.2365 c -3.0518 -5.9895 -3.0518 -13.8302 -3.0518 -29.5117 L 0 44.8 c 0 -15.6815 0 -23.5222 3.0518 -29.5117 a 28 28 0 0 1 12.2365 -12.2365 c 5.9895 -3.0518 13.8302 -3.0518 29.5117 -3.0518 Z" fill="black"/></svg>
