<svg xmlns="http://www.w3.org/2000/svg" viewBox="0 0 1200 800" preserveAspectRatio="none"><path d="M 1084.8 0 c 40.3238 0 60.4857 0 75.8873 7.8475 a 72.0000 72.0000 0 0 1 31.4652 31.4652 c 7.8475 15.4016 7.8475 35.5635 7.8475 75.8873 L 1200 684.8 c 0 40.3238 0 60.4857 -7.8475 75.8873 a 72.0000 72.0000 0 0 1 -31.4652 31.4652 c -15.4016 7.8475 -35.5635 7.8475 -75.8873 7.8475 L 115.2 800 c -40.3238 0 -60.4857 0 -75.8873 -7.8475 a 72.0000 72.0000 0 0 1 -31.4652 -31.4652 c -7.8475 -15.4016 -7.8475 -35.5635 -7.8475 -75.8873 L 0 115.2 c 0 -40.3238 0 -60.4857 7.8475 -75.8873 a 72.0000 72.0000 0 0 1 31.4652 -31.4652 c 15.4016 -7.8475 35.5635 -7.8475 75.8873 -7.8475 Z" fill="black"/></svg>
