<svg width="160" height="160" viewBox="0 0 160 160" fill="none" xmlns="http://www.w3.org/2000/svg">
<circle cx="80.0114" cy="79.8636" r="76.7812" fill="white" stroke="#F5F5F5" stroke-width="2.4375"/>
<path d="M53.4662 79.8636C53.4662 74.894 54.6783 70.3637 57.1025 66.2727C59.5267 62.1818 62.7843 58.9243 66.8751 56.5C70.966 54.0758 75.4963 52.8636 80.4659 52.8636C84.7689 52.8636 88.7385 53.7879 92.3749 55.6364C96.0415 57.4849 99.0718 60.0152 101.466 63.2273C103.86 66.4091 105.344 70.0152 105.92 74.0455H94.9203C94.3142 70.9243 92.6324 68.3788 89.8749 66.4091C87.1173 64.4091 83.981 63.4091 80.4659 63.4091C77.4356 63.4091 74.6781 64.1515 72.1933 65.6364C69.7084 67.1212 67.7236 69.1061 66.2388 71.5909C64.754 74.0758 64.0115 76.8333 64.0115 79.8636C64.0115 82.894 64.754 85.6515 66.2388 88.1364C67.7236 90.6212 69.7084 92.6061 72.1933 94.0909C74.6781 95.5758 77.4356 96.3182 80.4659 96.3182C83.981 96.3182 86.9507 95.3334 89.3749 93.3637C91.8294 91.3637 93.3748 88.803 94.0112 85.6818H105.011C104.435 89.7121 103.026 93.3333 100.784 96.5455C98.5415 99.7273 95.6627 102.242 92.1476 104.091C88.6628 105.939 84.7689 106.864 80.4659 106.864C75.4963 106.864 70.966 105.652 66.8751 103.227C62.7843 100.803 59.5267 97.5455 57.1025 93.4546C54.6783 89.3636 53.4662 84.8333 53.4662 79.8636ZM80.0114 127.864C73.4054 127.864 67.1933 126.621 61.3752 124.136C55.5874 121.652 50.4814 118.212 46.0572 113.818C41.6633 109.394 38.2088 104.288 35.6937 98.5C33.2089 92.7121 31.9816 86.5 32.0119 79.8636C32.0422 73.2273 33.2998 67.0152 35.7846 61.2273C38.2997 55.4394 41.7542 50.3485 46.1481 45.9546C50.542 41.5303 55.6328 38.0758 61.4207 35.5909C67.2085 33.1061 73.4054 31.8636 80.0114 31.8636C86.6476 31.8636 92.8597 33.1061 98.6475 35.5909C104.466 38.0758 109.556 41.5303 113.92 45.9546C118.314 50.3485 121.753 55.4394 124.238 61.2273C126.723 67.0152 127.981 73.2273 128.011 79.8636C128.041 86.5 126.814 92.7121 124.329 98.5C121.844 104.288 118.405 109.394 114.011 113.818C109.617 118.212 104.511 121.652 98.693 124.136C92.8748 126.621 86.6476 127.864 80.0114 127.864ZM80.0114 117.318C85.1931 117.318 90.0567 116.348 94.6021 114.409C99.1475 112.47 103.132 109.788 106.557 106.364C109.981 102.939 112.663 98.9697 114.602 94.4546C116.541 89.9091 117.496 85.0606 117.465 79.9091C117.435 74.7273 116.45 69.8636 114.511 65.3182C112.572 60.7727 109.89 56.7879 106.466 53.3636C103.041 49.9394 99.0718 47.2576 94.5566 45.3182C90.0415 43.3788 85.1931 42.4091 80.0114 42.4091C74.8599 42.4091 70.0266 43.3788 65.5115 45.3182C60.9964 47.2576 57.0268 49.9546 53.6026 53.4091C50.1784 56.8333 47.4814 60.8182 45.5117 65.3636C43.5724 69.8788 42.5875 74.7273 42.5572 79.9091C42.5269 85.0303 43.4815 89.8636 45.4208 94.4091C47.3602 98.9243 50.042 102.894 53.4662 106.318C56.9207 109.742 60.9055 112.439 65.4206 114.409C69.966 116.348 74.8296 117.318 80.0114 117.318Z" fill="black"/>
</svg>
